# xmcd CD database file
#
# Track frame offsets:
#	150
#	11787
#	22937
#	41032
#	52265
#	65375
#	81487
#	94640
#	106375
#	123427
#	141310
#	163395
#	175950
#
# Disc length: 2656 seconds
#
# Revision: 4
# Processed by: cddbd v1.5.2PL0 Copyright (c) Steve Scherf et al.
# Submitted via: CDex 1.70beta2
#
DISCID=b90a5e0d
DTITLE=Various Artist - Jazz CM Hits
DYEAR=1994
DGENRE=Jazz
TTITLE0=L．O．V．E．
TTITLE1=Take Five
TTITLE2=All Of Me
TTITLE3=Stranger In Paradise
TTITLE4=Love Letters
TTITLE5=In The Mood
TTITLE6=Smile
TTITLE7=Work Song
TTITLE8=Night And Day
TTITLE9=’Round Midnight
TTITLE10=Five Spot After Dark
TTITLE11=My Favorite Things
TTITLE12=When You Wish Upon A Star
EXTD=YEAR: 1994
EXTT0=
EXTT1=
EXTT2=
EXTT3=
EXTT4=
EXTT5=
EXTT6=
EXTT7=
EXTT8=
EXTT9=
EXTT10=
EXTT11=
EXTT12=
PLAYORDER=
